<?xml version="1.0" encoding="utf-8"?>
<!-- Generator: Adobe Illustrator 24.1.1, SVG Export Plug-In . SVG Version: 6.00 Build 0)  -->
<svg version="1.1" id="Layer_1" xmlns="http://www.w3.org/2000/svg" xmlns:xlink="http://www.w3.org/1999/xlink" x="0px" y="0px"
	 viewBox="0 0 512 512" style="enable-background:new 0 0 512 512;" xml:space="preserve">
<style type="text/css">
	.st0{fill-rule:evenodd;clip-rule:evenodd;}
</style>
<g>
	<path class="st0" d="M499.2,512H12.8C6.4,512,0,505.6,0,499.2c0-6.4,6.4-12.8,12.8-12.8h486.4c6.4,0,12.8,6.4,12.8,12.8
		C512,505.6,505.6,512,499.2,512z"/>
	<path class="st0" d="M202.7,206.9c0,6.4,2.1,8.5,6.4,8.5h2.1h4.3v17.1c-4.3,0-12.8,2.1-17.1,2.1c-10.7,0-17.1-4.3-19.2-12.8
		c-8.5,8.5-23.5,12.8-36.3,12.8c-19.2,0-36.3-10.7-36.3-32c0-25.6,21.3-29.9,40.5-32c17.1-4.3,32,0,32-14.9
		c0-12.8-12.8-14.9-21.3-14.9c-12.8,0-23.5,6.4-23.5,17.1h-23.5c2.1-27.7,25.6-36.3,49.1-36.3c21.3,0,42.7,8.5,42.7,32V206.9z
		 M179.2,177.1c-8.5,6.4-19.2,6.4-29.9,6.4c-10.7,2.1-19.2,6.4-19.2,19.2c0,10.7,12.8,12.8,21.3,12.8c10.7,0,25.6-6.4,25.6-21.3
		v-17.1H179.2z"/>
	<path class="st0" d="M234.7,128h23.5v14.9c6.4-12.8,19.2-17.1,34.1-17.1c34.1,0,51.2,25.6,51.2,57.6c0,29.9-14.9,55.5-46.9,55.5
		c-12.8,0-27.7-4.3-36.3-17.1v53.3h-25.6V128z M288,145.1c-19.2,0-29.9,14.9-29.9,38.4c0,21.3,10.7,38.4,29.9,38.4
		c21.3,0,29.9-19.2,29.9-38.4C317.9,162.1,307.2,145.1,288,145.1z"/>
	<path class="st0" d="M362.7,85.3H384v21.3h-21.3V85.3z M362.7,128H384v106.7h-21.3V128z"/>
	<path class="st0" d="M469.3,25.6c8.5,0,17.1,6.4,17.1,17.1v298.7c0,8.5-6.4,17.1-17.1,17.1H42.7c-8.5,0-17.1-6.4-17.1-17.1V42.7
		c0-8.5,6.4-17.1,17.1-17.1H469.3z M469.3,0H42.7C19.2,0,0,19.2,0,42.7v298.7C0,364.8,19.2,384,42.7,384h426.7
		c23.5,0,42.7-19.2,42.7-42.7V42.7C512,19.2,492.8,0,469.3,0z"/>
</g>
</svg>
