<?xml version="1.0" encoding="utf-8"?>
<!-- Generator: Adobe Illustrator 26.5.0, SVG Export Plug-In . SVG Version: 6.00 Build 0)  -->
<svg version="1.1" id="Layer_1" xmlns="http://www.w3.org/2000/svg" xmlns:xlink="http://www.w3.org/1999/xlink" x="0px" y="0px"
	 viewBox="0 0 512 512" style="enable-background:new 0 0 512 512;" xml:space="preserve">
<style type="text/css">
	.st0{fill:#6C6D6D;}
	.st1{fill:#EA4335;}
	.st2{fill:#FBBC04;}
	.st3{fill:#0F9D58;}
	.st4{fill:#4285F4;}
</style>
<g id="XMLID_43_">
	<path id="XMLID_45_" class="st0" d="M284.82,235.09h10.46c10.59,0,17.25,7.06,17.25,16.99c0,9.93-6.67,16.99-17.25,16.99h-10.46
		V235.09z M295.27,264.89c7.84,0,12.81-4.71,12.81-12.81c0-8.1-4.97-12.81-12.81-12.81h-6.01v25.75h6.01V264.89z M315.01,257.44
		c0-6.67,4.58-12.42,11.37-12.42c6.93,0,11.37,4.84,11.37,12.42c0,0.39,0,0.78,0,0.78h-18.43c0.26,4.97,3.79,7.58,7.45,7.58
		c2.61,0,5.1-1.05,6.41-4.05l3.92,1.57c-1.44,3.27-4.84,6.41-10.2,6.41C319.72,269.86,315.01,264.5,315.01,257.44z M326.25,249.07
		c-3.27,0-5.75,2.22-6.67,5.62h13.46C333.05,252.6,331.22,249.07,326.25,249.07z M339.32,245.8h4.71l6.8,18.04h0.13l6.93-18.04h4.71
		l-9.54,23.27h-4.31L339.32,245.8z M362.98,257.44c0-6.67,4.58-12.42,11.37-12.42c6.93,0,11.37,4.84,11.37,12.42
		c0,0.39,0,0.78,0,0.78H367.3c0.26,4.97,3.79,7.58,7.45,7.58c2.61,0,5.1-1.05,6.41-4.05l3.92,1.57c-1.44,3.27-4.84,6.41-10.2,6.41
		C367.69,269.86,362.98,264.5,362.98,257.44z M374.36,249.07c-3.27,0-5.75,2.22-6.67,5.62h13.46
		C381.02,252.6,379.32,249.07,374.36,249.07z M389.39,269.07v-34.12h4.44v34.12H389.39z M421.28,257.44
		c0,7.06-4.97,12.42-12.03,12.42s-12.03-5.36-12.03-12.42s4.97-12.42,12.03-12.42S421.28,250.38,421.28,257.44z M416.84,257.44
		c0-5.36-3.66-8.37-7.58-8.37s-7.58,3.14-7.58,8.37c0,5.36,3.66,8.37,7.58,8.37S416.84,262.8,416.84,257.44z M429,265.8h-0.13
		l0.13,3.27v10.33h-4.44V245.8h4.18v3.27h0.13c1.31-2.09,4.18-4.05,7.97-4.05c5.88,0,11.11,5.23,11.11,12.42
		c0,7.19-5.23,12.42-11.11,12.42C433.18,269.86,430.3,268.03,429,265.8z M443.64,257.44c0-5.23-3.53-8.37-7.45-8.37
		s-7.45,3.14-7.45,8.37c0,5.36,3.53,8.37,7.45,8.37S443.64,262.67,443.64,257.44z M450.43,257.44c0-6.67,4.58-12.42,11.37-12.42
		c6.93,0,11.37,4.84,11.37,12.42c0,0.39,0,0.78,0,0.78h-18.43c0.26,4.97,3.79,7.58,7.45,7.58c2.61,0,5.1-1.05,6.41-4.05l3.92,1.57
		c-1.44,3.27-4.84,6.41-10.2,6.41C455.14,269.86,450.43,264.5,450.43,257.44z M461.67,249.07c-3.27,0-5.75,2.22-6.67,5.62h13.46
		C468.47,252.6,466.77,249.07,461.67,249.07z M476.84,269.07V245.8h4.18v3.79h0.13c0.92-2.61,4.31-4.44,6.8-4.44
		c1.44,0,2.35,0.13,3.27,0.52l-1.7,4.05c-0.65-0.26-1.44-0.39-2.35-0.39c-3.01,0-6.01,2.48-6.01,6.8v12.81h-4.31V269.07z
		 M492.52,263.19l3.92-1.57c1.18,3.01,3.53,4.44,6.27,4.44c2.75,0,4.71-1.31,4.71-3.27c0-1.18-0.65-2.48-3.14-3.14l-4.71-1.18
		c-2.09-0.52-6.27-2.35-6.27-6.54c0-4.18,4.44-6.93,9.28-6.93c4.05,0,7.58,1.83,9.02,5.49l-3.79,1.57
		c-0.92-2.22-3.01-3.14-5.36-3.14c-2.48,0-4.58,1.05-4.58,3.01c0,1.44,1.18,2.22,3.14,2.75l4.58,1.05c4.58,1.05,6.41,3.92,6.41,6.8
		c0,4.18-3.66,7.32-9.15,7.32C497.1,269.86,493.96,266.59,492.52,263.19z M138.28,269.86c5.75,0,10.2-1.96,13.59-5.49
		c3.53-3.53,4.58-8.5,4.58-12.42c0-1.18-0.13-2.35-0.26-3.27h-17.91v5.36h12.81c-0.39,3.01-1.44,5.23-2.88,6.67
		c-1.83,1.83-4.71,3.92-9.8,3.92c-7.84,0-13.99-6.27-13.99-14.25c0-7.84,6.14-14.25,13.99-14.25c4.18,0,7.32,1.7,9.67,3.79
		l3.79-3.79c-3.14-3.01-7.45-5.36-13.33-5.36c-10.72,0-19.74,8.76-19.74,19.48C118.54,261.1,127.56,269.86,138.28,269.86z
		 M171.09,244.76c-6.93,0-12.55,5.23-12.55,12.55c0,7.19,5.62,12.55,12.55,12.55s12.55-5.36,12.55-12.55
		C183.64,249.99,178.02,244.76,171.09,244.76z M171.09,264.89c-3.79,0-7.06-3.14-7.06-7.58c0-4.58,3.27-7.58,7.06-7.58
		s7.06,3.14,7.06,7.58C178.15,261.75,174.88,264.89,171.09,264.89z M198.54,244.76c-6.93,0-12.55,5.23-12.55,12.55
		c0,7.19,5.62,12.55,12.55,12.55c6.93,0,12.55-5.36,12.55-12.55C211.22,249.99,205.6,244.76,198.54,244.76z M198.54,264.89
		c-3.79,0-7.06-3.14-7.06-7.58c0-4.58,3.27-7.58,7.06-7.58c3.79,0,7.06,3.14,7.06,7.58C205.73,261.75,202.46,264.89,198.54,264.89z
		 M232.4,245.54v2.09h-0.13c-1.18-1.44-3.66-2.75-6.67-2.75c-6.27,0-12.03,5.49-12.03,12.55s5.75,12.55,12.03,12.55
		c3.01,0,5.36-1.31,6.67-2.88h0.13v1.83c0,4.84-2.61,7.32-6.67,7.32c-3.4,0-5.49-2.48-6.27-4.44l-4.84,1.96
		c1.44,3.27,5.1,7.45,11.11,7.45c6.54,0,11.9-3.79,11.9-13.07v-22.61L232.4,245.54L232.4,245.54z M225.99,264.89
		c-3.79,0-7.06-3.14-7.06-7.58c0-4.44,3.14-7.71,7.06-7.71c3.79,0,6.67,3.27,6.67,7.71C232.79,261.75,229.78,264.89,225.99,264.89z
		 M246.91,232.21h-5.49v36.99h5.49V232.21z M262.07,264.89c-2.75,0-4.84-1.31-6.14-3.79l16.86-6.93l-0.52-1.44
		c-1.05-2.75-4.18-7.97-10.72-7.97s-11.9,5.1-11.9,12.55c0,7.06,5.36,12.55,12.42,12.55c5.75,0,9.15-3.53,10.46-5.62l-4.31-2.88
		C266.78,263.58,264.95,264.89,262.07,264.89z M261.68,249.59c2.22,0,4.05,1.05,4.71,2.61l-11.24,4.71
		C254.88,252.08,258.8,249.59,261.68,249.59z"/>
	<g id="XMLID_2_">
		<path id="XMLID_104_" class="st1" d="M10.31,262.01l29.41-16.99c2.61-1.57,3.53-4.84,1.96-7.45l-1.83-3.27
			c-1.57-2.61-4.84-3.53-7.45-1.96L2.99,249.33c-2.61,1.57-3.53,4.84-1.96,7.45l1.83,3.27C4.3,262.67,7.7,263.58,10.31,262.01z"/>
		<path id="XMLID_106_" class="st2" d="M61.94,277.31l29.41-16.99c2.61-1.57,3.53-4.84,1.96-7.45l-1.83-3.27
			c-1.57-2.61-4.84-3.53-7.45-1.96l-29.41,16.99c-2.61,1.57-3.53,4.84-1.96,7.45l1.83,3.27C55.93,277.96,59.33,278.88,61.94,277.31z
			"/>
		<path id="XMLID_105_" class="st3" d="M84.17,262.01l-29.41-16.99c-2.61-1.57-3.53-4.84-1.96-7.45l1.83-3.27
			c1.57-2.61,4.84-3.53,7.45-1.96l29.41,16.99c2.61,1.57,3.53,4.84,1.96,7.45l-1.83,3.27C90.18,262.67,86.78,263.58,84.17,262.01z"
			/>
		<path id="XMLID_42_" class="st4" d="M32.14,277.31L2.73,260.31c-2.61-1.57-3.53-4.84-1.96-7.45l1.83-3.27
			c1.57-2.61,4.84-3.53,7.45-1.96l29.41,16.99c2.61,1.57,3.53,4.84,1.96,7.45l-1.83,3.27C38.02,277.96,34.76,278.88,32.14,277.31z"
			/>
	</g>
</g>
</svg>
