<?xml version="1.0" encoding="utf-8"?>
<!-- Generator: Adobe Illustrator 24.1.1, SVG Export Plug-In . SVG Version: 6.00 Build 0)  -->
<svg version="1.1" id="Layer_1" xmlns="http://www.w3.org/2000/svg" xmlns:xlink="http://www.w3.org/1999/xlink" x="0px" y="0px"
	 viewBox="0 0 512 512" style="enable-background:new 0 0 512 512;" xml:space="preserve">
<style type="text/css">
	.st0{fill:#2684FF;}
	.st1{fill:url(#SVGID_1_);}
	.st2{fill:url(#SVGID_2_);}
</style>
<g>
	<path class="st0" d="M490.6,0H244.1c0,29.5,11.7,57.8,32.6,78.7s49.2,32.6,78.7,32.6h45.4v43.8c0,61.4,49.8,111.2,111.2,111.2v-245
		C512,9.6,502.4,0,490.6,0z"/>
	
		<linearGradient id="SVGID_1_" gradientUnits="userSpaceOnUse" x1="-3.3609" y1="509.3411" x2="-1.3556" y2="509.3411" gradientTransform="matrix(-52.3022 53.9378 -54.2554 -51.996 27843.4727 26788.2871)">
		<stop  offset="0" style="stop-color:#0052CC"/>
		<stop  offset="0.18" style="stop-color:#0052CC"/>
		<stop  offset="1" style="stop-color:#2684FF"/>
	</linearGradient>
	<path class="st1" d="M368.6,122.8H122.1c0,61.4,49.8,111.2,111.2,111.2h45.4v44c0.1,61.4,49.9,111.2,111.3,111.2v-245
		C390,132.4,380.4,122.8,368.6,122.8z"/>
	
		<linearGradient id="SVGID_2_" gradientUnits="userSpaceOnUse" x1="-2.06" y1="509.6708" x2="-5.470462e-02" y2="509.6708" gradientTransform="matrix(-60.48 58.8089 -59.1552 -60.1259 30294.8027 31012.4023)">
		<stop  offset="0" style="stop-color:#0052CC"/>
		<stop  offset="0.18" style="stop-color:#0052CC"/>
		<stop  offset="1" style="stop-color:#2684FF"/>
	</linearGradient>
	<path class="st2" d="M246.6,245.6H0c0,61.5,49.8,111.3,111.3,111.3h45.6v43.8c0,61.4,49.7,111.1,111.1,111.2V267
		C267.9,255.2,258.4,245.6,246.6,245.6z"/>
</g>
</svg>
