<?xml version="1.0" encoding="utf-8"?>
<!-- Generator: Adobe Illustrator 26.5.0, SVG Export Plug-In . SVG Version: 6.00 Build 0)  -->
<svg version="1.1" id="Layer_1" xmlns="http://www.w3.org/2000/svg" xmlns:xlink="http://www.w3.org/1999/xlink" x="0px" y="0px"
	 viewBox="0 0 512 512" style="enable-background:new 0 0 512 512;" xml:space="preserve">
<style type="text/css">
	.st0{fill:#CB3837;}
	.st1{fill:#FFFFFF;}
</style>
<g id="XMLID_1_">
	<polygon id="XMLID_2_" class="st0" points="0,156.12 0,327.12 142.38,327.12 142.38,355.88 256,355.88 256,327.12 512,327.12 
		512,156.12 	"/>
	<polygon id="XMLID_3_" class="st1" points="85.01,184.88 28.62,184.88 28.62,213.5 28.62,298.5 85.01,298.5 85.01,213.5 
		113.62,213.5 113.62,298.5 142.38,298.5 142.38,213.5 142.38,184.88 	"/>
	<path id="XMLID_4_" class="st1" d="M170.99,184.88v107.73v5.89v28.62h57.37V298.5h56.39V184.88L170.99,184.88L170.99,184.88z
		 M256,269.89h-27.63V213.5H256V269.89z"/>
	<polygon id="XMLID_7_" class="st1" points="369.62,184.88 313.37,184.88 313.37,213.5 313.37,298.5 369.62,298.5 369.62,213.5 
		398.38,213.5 398.38,298.5 426.99,298.5 426.99,213.5 455.61,213.5 455.61,298.5 484.37,298.5 484.37,213.5 484.37,186.84 
		484.37,184.88 	"/>
</g>
</svg>
