<svg height="48pt" viewBox="0 0 48 48" width="48pt" xmlns="http://www.w3.org/2000/svg" xmlns:xlink="http://www.w3.org/1999/xlink"><linearGradient id="a"><stop offset="0" stop-color="#4e54c8"/><stop offset=".83888397938" stop-color="#0072ff"/></linearGradient><linearGradient id="b" gradientTransform="matrix(46.43 0 0 34.39 1 6.1)" gradientUnits="userSpaceOnUse" x1="0" x2=".907488" xlink:href="#a" y1=".5" y2=".920078"/><linearGradient id="c" gradientTransform="matrix(10.19 0 0 10.29 15.14 20.53)" gradientUnits="userSpaceOnUse" x1="0" x2=".907488" xlink:href="#a" y1=".5" y2=".920078"/><linearGradient id="d" gradientTransform="matrix(9.69 0 0 4.061 24.31 28.72)" gradientUnits="userSpaceOnUse" x1="0" x2=".907488" xlink:href="#a" y1=".5" y2=".920078"/><linearGradient id="e" gradientUnits="userSpaceOnUse" x1="22.215" x2="25.844952" xlink:href="#a" y1="38.49" y2="40.170312"/><path d="m34.71 36.32h.14c1.17 0 2.32-.2 3.42-.59 1-.36 1.92-.89 2.74-1.58.73-.62 1.34-1.38 1.78-2.24.41-.82.63-1.72.64-2.63v-.07c0-1.05-.28-2.08-.79-2.99-.9-1.56-2.32-2.76-3.071-3.036-.518-.19-.641-.679-.275-1.091.616-.693 1.326-2.553 1.336-4.483 0-.56-.07-1.12-.19-1.66-.38-1.68-1.34-3.18-2.71-4.23-1.39-1.06-3.09-1.63-4.85-1.62-.69 0-1.37.08-2.04.25q-2.95.73-5.107 4.166c-.587.935-1.474.897-1.979-.084q-1.074-2.082-3.064-2.952c-1.02-.45-2.12-.68-3.24-.67-.71 0-1.42.08-2.11.25-1.8.44-3.42 1.45-4.61 2.88-1.09 1.29-1.69 2.91-1.71 4.59 0 .48.05.95.16 1.42.15.72.49 1.38.49 1.38.265.309.065.728-.447.936-.873.354-2.353 1.674-3.283 3.364-.61 1.11-.94 2.35-.94 3.62 0 .53.06 1.05.17 1.57.38 1.63 1.31 3.08 2.65 4.09 1.39 1.04 3.08 1.59 4.82 1.58.34 0 .68-.02 1.03-.06 1.093-.132 2.088.649 2.22 1.745.132 1.096-.647 2.093-1.74 2.225-.5.06-1 .09-1.5.09-2.61.02-5.14-.82-7.23-2.38-2.09-1.58-3.57-3.85-4.15-6.4-.18-.81-.27-1.64-.27-2.47 0-1.94.5-3.84 1.43-5.54.71-1.28 1.64-2.43 2.74-3.39-.1-.59-.15-1.2-.15-1.8.02-2.61.96-5.14 2.65-7.14 1.73-2.08 4.09-3.55 6.72-4.19 1-.25 2.02-.37 3.05-.37 1.67-.01 3.33.34 4.86 1.01.83.36 1.61.83 2.32 1.38 1.51-1.32 3.31-2.25 5.26-2.73.98-.25 1.98-.37 3-.37 2.63-.01 5.19.85 7.28 2.45 2.12 1.61 3.6 3.92 4.18 6.52.19.83.29 1.69.29 2.54-.01 1.33-.23 2.65-.67 3.91.85.79 1.57 1.71 2.15 2.72.86 1.51 1.31 3.22 1.32 4.96v.02.08.02c-.02 1.53-.39 3.03-1.07 4.4-.69 1.34-1.63 2.52-2.78 3.49-1.17.99-2.52 1.77-3.97 2.28-1.53.55-3.14.83-4.77.83 0 0 0 0-.01 0h-.14c-.7-.01-1.4-.07-2.08-.2-1.087-.204-1.804-1.25-1.6-2.335.204-1.085 1.248-1.799 2.33-1.595.45.08.91.12 1.37.13z" fill="url(#b)"/><path d="m16.5 23.88c-.751-.348-1.078-1.239-.73-1.99.348-.751 1.239-1.078 1.99-.73l4.85 2.255c1.501.698 1.643 2.07.317 3.061l-4.607 3.444c-.662.497-1.603.36-2.1-.305-.497-.665-.362-1.604.3-2.095l2.99-2.24z" fill="url(#c)"/><path d="m31.175 29.36c.806-.353 1.766-.031 2.143.72.376.751.032 1.647-.768 2-.516.22-1.064.4-1.612.52-.548.11-1.095.18-1.654.18-.569.01-1.139-.05-1.708-.16-.613-.12-1.203-.29-1.783-.52-.819-.32-1.201-1.201-.855-1.965.347-.764 1.293-1.121 2.111-.795.387.15.785.27 1.204.35.322.06.666.09 1.009.09.312 0 .634-.04.946-.1.333-.08.655-.18.967-.32z" fill="url(#d)"/><circle cx="24.215" cy="38.490349" fill="url(#e)" r="2"/></svg>