<?xml version="1.0" encoding="utf-8"?>
<!-- Generator: Adobe Illustrator 27.0.0, SVG Export Plug-In . SVG Version: 6.00 Build 0)  -->
<svg version="1.1" id="Layer_1" xmlns="http://www.w3.org/2000/svg" xmlns:xlink="http://www.w3.org/1999/xlink" x="0px" y="0px"
	 viewBox="0 0 512 512" style="enable-background:new 0 0 512 512;" xml:space="preserve">
<style type="text/css">
	.st0{fill:#0079BF;}
	.st1{fill:url(#SVGID_1_);}
	.st2{fill:#FFFFFF;}
</style>
<g id="XMLID_1_">
	<path id="XMLID_2_" class="st0" d="M412.88,292.26c-7.86,3.23-14.04,14.18-23.45,20.5c-0.56,0.42-1.12,0.56-1.54,0.56
		c-0.84,0-1.68-0.84-1.68-4.21c0-12.07,3.93-17.83,7.16-26.39c11.51-29.76,31.03-55.17,48.57-82.97c1.4-2.11,2.11-4.49,2.11-7.02
		c0-2.11-0.84-3.93-1.68-6.04c-0.84-1.68-4.21-3.37-8.14-3.37c-2.11,0-4.07,0.14-6.6,0.14c-9.13,0-11.09,13.48-13.2,16.85
		c-14.6,24.71-31.31,55.17-39.87,76.79c-1.83,4.77-3.93,9.69-5.48,14.6c-8.42,2.39-14.74,14.32-24.71,20.92
		c-0.56,0.42-1.12,0.56-1.54,0.56c-0.84,0-1.68-0.84-1.68-4.21c0-12.07,3.93-17.83,7.16-26.39c11.51-29.76,31.03-55.17,48.57-82.97
		c1.4-2.11,2.11-4.49,2.11-7.02c0-2.11-0.84-3.93-1.68-6.04c-0.84-1.68-4.21-3.37-8.14-3.37c-2.11,0-4.07,0.14-6.6,0.14
		c-9.13,0-11.09,13.48-13.2,16.85c-14.6,24.71-31.31,55.17-39.87,76.79c-0.7,1.68-1.4,3.51-2.11,5.33c-0.28,0.14-0.42,0.28-0.7,0.42
		c-9.97,5.9-18.25,16.14-30.32,23.16c-2.39,1.4-9.55,6.46-15.3,6.46c-1.4,0-2.53-0.42-3.65-0.98c-1.68-0.84-3.51-4.49-3.51-5.62
		c0-0.98,0.14-1.12,2.11-2.39c17.13-10.25,31.03-25.13,43.1-39.87c4.49-5.48,10.25-16.14,10.25-23.87c0-5.05-1.68-10.95-7.72-13.06
		c-4.21-1.54-9.13-2.39-13.06-2.39c-10.25,0-17.83,4.63-22.18,9.13c-4.35,4.63-8.56,9.41-12.49,14.32
		c-4.07-3.51-9.83-5.05-15.3-5.05c-6.46,0-18.53,8-24.71,12.64c-0.98,0.84-1.54,1.12-1.97,1.12c-0.14,0-0.42-0.14-0.42-0.56
		c0-0.14,0.42-1.97,0.42-5.05c0-2.67-0.56-6.18-3.09-10.53c-0.56-0.98-4.07-3.09-8.42-3.09c-5.19,0-10.11,2.53-10.11,5.19
		c0,1.97,1.68,2.67,1.68,4.49c0,0.98-0.84,5.48-1.97,9.69c-3.37,12.49-7.44,24.71-11.65,36.92c-2.39,6.74-10.11,12.78-10.11,20.22
		c0,2.39,1.54,5.48,3.65,7.72c3.51,3.93,5.62,5.19,8.7,5.19c1.4,0,2.95-0.42,4.21-1.54c2.95-2.53,4.49-5.05,5.19-8.56
		c5.05-22.88,19.65-38.47,35.8-48.72c5.48-3.51,12.78-7.16,13.76-7.16s2.53,0.42,4.07,0.84c-4.49,7.3-8.14,15.16-10.53,23.45
		c-0.84,2.67-1.12,5.19-1.12,8c0,4.49,0.98,9.13,2.53,13.62c2.11,6.18,5.62,11.65,10.53,14.18c8.98,4.63,15.3,7.16,21.2,7.16
		c3.37,0,5.9-0.56,8.56-2.11c12.78-7.16,20.64-12.78,26.25-17.55c0.14,4.91,1.12,7.72,4.63,11.37c3.51,3.65,8.98,7.02,16.14,8.56
		c1.12,0.14,2.39,0.42,3.51,0.42c8.28,0,16.14-6.74,22.18-13.34c0.7,1.4,1.68,2.81,3.23,4.35c3.51,3.65,8.98,7.02,16.14,8.56
		c1.12,0.14,2.39,0.42,3.51,0.42c9.69,0,18.81-9.13,25.27-16.71c2.11,4.35,8,8.7,15.16,12.21c1.97,0.98,4.21,1.54,6.46,1.54
		c8.42,0,14.32-6.74,19.09-11.79c12.07-13.2,18.67-29.48,23.73-50.12c0.42-1.54,0.98-2.11,1.68-2.11c1.97,0,4.49,0,7.16-0.42
		c5.19-0.84,9.27-2.53,14.18-3.37c2.95-0.56,2.53-1.54,5.19-2.53c1.97-0.84,3.51-1.54,3.51-3.51c0-3.37-6.04-6.74-15.16-6.74
		c-7.16,0-11.51,0.56-14.32,0.56c-4.49,0-5.62-1.4-8.56-8.98c0,0,2.95,7.58,0,0c-0.56-1.54-1.12-2.39-2.95-3.93
		c-4.07-3.51-9.13-4.63-13.2-4.63c-9.69,0-18.11,9.97-23.87,18.25c-1.4,1.97-3.37,3.51-4.63,5.62
		C421.44,264.18,413.86,277.66,412.88,292.26z M164.39,226.14c4.91,0,7.58-0.42,8.14-0.42s0.98,0.14,0.98,0.84
		c0,0.42-0.14,0.98-1.54,3.93c-11.79,25.41-20.08,51.24-27.24,79.88c-0.14,0.84-0.84,3.65-0.84,6.6c0,2.67,0.84,5.62,3.51,7.16
		c5.19,3.09,9.55,4.49,12.49,4.49c4.21,0,6.46-2.67,6.46-7.16c0-3.93,0.14-8,0.84-11.09c5.48-28.5,13.62-50.96,26.25-74.27
		c6.04-11.09,6.74-11.65,6.74-12.64c0-0.42-0.14-0.98-0.56-1.54c7.72-1.68,17.13-2.95,25.69-2.95c0.98,0,4.91,1.4,5.48,1.97
		c1.4,1.4,2.67,2.67,5.05,2.67c1.97,0,5.19-1.4,6.46-2.11c2.67-1.97,4.07-4.07,4.07-7.58c0-3.37-12.21-11.51-20.78-11.51
		c-10.53,0-20.08,1.4-28.92,3.09c-3.93,0.84-17.83,2.95-27.94,2.95c-9.69,0-9.13-1.4-13.2-1.4c-2.39,0-3.51,1.12-4.49,2.11
		c-0.98,0.98-1.54,4.91-1.54,8.42c0,1.68,0,3.09,0.98,4.21C153.16,225.3,158.77,226.14,164.39,226.14
		C164.39,226.14,158.77,226.14,164.39,226.14z M308.43,241.86c0,1.68-0.56,2.95-2.95,6.6c-2.39,3.65-1.4,3.65-4.21,7.58
		c-5.62,7.58-12.64,15.16-21.76,23.45c-2.53,2.39-2.95,2.39-3.37,2.39c-0.14,0-0.56-0.14-0.56-0.56c0-0.56,0.14-1.4,2.11-5.48
		c6.04-12.64,13.48-20.92,21.62-29.2c4.49-4.49,7.16-6.04,8.14-6.04C308,240.74,308.43,240.88,308.43,241.86
		C308.43,241.86,308.43,240.88,308.43,241.86z M457.8,246.92c0.14,0,0.42,0.14,0.56,0.56c0.14,0.56,0.56,1.12,1.54,1.97
		c0.84,0.56,0.84,3.37,0.84,5.48c0,18.81-10.67,34.4-21.2,50.12c-2.39,3.51-3.65,4.07-4.91,4.07c-0.98,0-2.53-2.53-3.09-4.07
		c-0.84-2.11-0.98-4.63-0.98-5.62c0-15.16,14.32-37.76,23.87-50.12C456.12,247.06,457.24,246.92,457.8,246.92
		C457.8,246.92,457.24,246.92,457.8,246.92z"/>
	
		<linearGradient id="SVGID_1_" gradientUnits="userSpaceOnUse" x1="-342.6139" y1="573.2983" x2="-341.662" y2="573.2983" gradientTransform="matrix(0 128.9062 128.9062 0 -73840.5156 44369.8516)">
		<stop  offset="0" style="stop-color:#0079BF"/>
		<stop  offset="1" style="stop-color:#0079BF"/>
	</linearGradient>
	<path class="st1" d="M15.15,204.8h92.1c8.42,0,15.3,6.88,15.3,15.3v92.1c0,8.42-6.88,15.3-15.3,15.3h-92.1
		c-8.42,0-15.3-6.88-15.3-15.3v-91.96C-0.15,211.68,6.73,204.8,15.15,204.8z"/>
	<path id="XMLID_7_" class="st2" d="M76.5,220.8h22.74c4.07,0,7.3,3.23,7.3,7.3v38.89c0,4.07-3.23,7.3-7.3,7.3H76.5
		c-4.07,0-7.3-3.23-7.3-7.3V228.1C69.2,224.03,72.43,220.8,76.5,220.8z"/>
	<path id="XMLID_8_" class="st2" d="M23.15,220.8H45.9c4.07,0,7.3,3.23,7.3,7.3v69.63c0,4.07-3.23,7.3-7.3,7.3H23.15
		c-4.07,0-7.3-3.23-7.3-7.3V228.1C15.85,224.03,19.08,220.8,23.15,220.8z"/>
</g>
</svg>
